# xmcd
# 
# Track frame offsets:
#     150
#     23217
#     34166
#     46125
#     61389
#     75186
#     94196
#     107713
#     122277
#     138104
#     157506
#     172951
#     185648
#     206817
#     225036
#     244193
#     256610
#     273379
# 
# Disc length: 3897
# 
# Revision: 8
# Processed by: cddbd v1.5.2PL0 Copyright (c) Steve Scherf et al.
# Submitted via: BonkEnc v1.0
# 
DISCID=d20f3712
DTITLE=Vários - O Melhor De
DYEAR=2002
DGENRE=Vocal
TTITLE0=Ana Carolina - Quem De Nos Dois
TTITLE1=Cássia Eller - Por Enquanto
TTITLE2=Adriana Calcanhoto - Devolva Me
TTITLE3=Marisa Monte - Que Me Importa
TTITLE4=Ana Carolina - Garganta
TTITLE5=Cássia Eller - Luz Dos Olhos
TTITLE6=Adriana Calcanhoto - Mentiras
TTITLE7=Marisa Monte - Amor I Love You
TTITLE8=Ana Carolina - Confesso
TTITLE9=Cássia Eller - Segundo Sol
TTITLE10=Adriana Calcanhoto - Metade
TTITLE11=Marisa Monte - Gentileza
TTITLE12=Ana Carolina - Pra Terminar
TTITLE13=Cássia Eller - Malandragem
TTITLE14=Adriana Calcanhoto - Vambora
TTITLE15=Marisa Monte - Eu Sei
TTITLE16=Cássia Eller - Todo Amor Que Houver Nessa Vida
TTITLE17=Marisa Monte - Ainda Lembro
EXTD=YEAR: 2002
EXTT0=
EXTT1=
EXTT2=
EXTT3=
EXTT4=
EXTT5=
EXTT6=
EXTT7=
EXTT8=
EXTT9=
EXTT10=
EXTT11=
EXTT12=
EXTT13=
EXTT14=
EXTT15=
EXTT16=
EXTT17=
PLAYORDER=
